<?xml version="1.0" encoding="utf-8"?>
<!-- Generator: Adobe Illustrator 16.0.0, SVG Export Plug-In . SVG Version: 6.00 Build 0)  -->
<!DOCTYPE svg PUBLIC "-//W3C//DTD SVG 1.1//EN" "http://www.w3.org/Graphics/SVG/1.1/DTD/svg11.dtd">
<svg version="1.1" xmlns="http://www.w3.org/2000/svg" xmlns:xlink="http://www.w3.org/1999/xlink" x="0px" y="0px" width="183.5px"
	 height="47.333px" viewBox="0 0 183.5 47.333" enable-background="new 0 0 183.5 47.333" xml:space="preserve">
<g id="Layer_1">
	<g>
		<path fill="#088CCB" d="M12.918,30.043l-7.031-7.03c-3.294-3.295-4.293-4.849-4.293-6.662c0-3.331,5.625-5.625,13.47-5.625
			c4.886,0,9.179,1.295,11.289,3.405l-3.703,3.7h-8.437l7.033,7.032c3.7,3.701,4.81,5.329,4.81,7.031
			c0,3.886-3.517,5.255-13.766,5.255c-8.551,0-11.548-1.851-11.548-7.106H12.918z"/>
		<path fill="#088CCB" d="M57.106,17.831v18.875h-8.698v-6.439l-3.737,3.737c-2.405,2.369-4.698,3.183-8.844,3.183
			c-5.625,0-8.252-3.108-8.252-9.918c0-12.175,4.255-16.542,16.318-16.542C53.257,10.726,57.106,12.799,57.106,17.831z
			 M49.816,18.202H36.861v12.952L49.816,18.202z"/>
		<path fill="#088CCB" d="M89.524,22.457c0,10.066-4.516,14.692-14.063,14.692c-2.48,0-4.775-0.407-6.774-1.111v10.289h-8.695V11.17
			h8.695v6.55l3.036-3.072c2.851-2.886,5.367-3.922,9.918-3.922C86.821,10.726,89.524,14.279,89.524,22.457z M80.235,16.721
			L67.282,29.673h12.953V16.721z"/>
		<path fill="#088CCB" d="M121.276,22.457c0,10.066-4.516,14.692-14.063,14.692c-2.479,0-4.773-0.407-6.773-1.111v10.289h-8.696
			V11.17h8.696v6.55l3.036-3.072c2.85-2.886,5.367-3.922,9.918-3.922C118.573,10.726,121.276,14.279,121.276,22.457z
			 M111.987,16.721L99.034,29.673h12.953V16.721z"/>
		<path fill="#088CCB" d="M150.139,17.091v19.614h-8.696V18.72l-9.251,9.251v8.734h-8.697V0.808h8.697v16.616l2.59-2.59
			c3.146-3.146,5.032-4.108,8.142-4.108C147.624,10.726,150.139,12.947,150.139,17.091z"/>
		<path fill="#088CCB" d="M153.027,8.506V0.808h8.696v7.698H153.027z M153.027,36.706V11.17h8.696v25.535H153.027z"/>
		<path fill="#088CCB" d="M182.82,26.343h-9.476v10.362h-8.695V11.17h8.695v8.363l9.476-9.474V26.343z"/>
	</g>
</g>
<g id="_x3C_Layer_x3E_">
</g>
</svg>
