<?xml version="1.0" encoding="UTF-8"?>
<!-- Generator: Adobe Illustrator 26.5.0, SVG Export Plug-In . SVG Version: 6.00 Build 0)  -->
<svg xmlns="http://www.w3.org/2000/svg" xmlns:xlink="http://www.w3.org/1999/xlink" version="1.1" id="Layer_1" x="0px" y="0px" viewBox="0 0 1197 232" style="enable-background:new 0 0 1197 232;" xml:space="preserve">
<style type="text/css">
	.st0{fill:#FF0000;}
	.st1{fill:#FFFFFF;}
</style>
<g>
	<g id="SR_White-Red_Logo_00000031174674685003853960000009264175709868450712_">
		<g id="Layer_2_00000005241932733560260430000015068534292634674355_">
			<g id="Ebene_1_00000085209184023779666070000011557955014159639951_">
				<path d="M0,89.5h13.1v4.1c0,10.3,5.4,14.5,19.8,14.5h30.1c21.1,0,27.8-0.8,27.8-13.2v-0.7c0-8-2.3-12.3-19.1-12.3H28.3      C8.5,81.8,1.2,75.4,1.2,59.6v-4.8c0-13.6,7.7-21.1,42.3-21.1H65c31.7,0,36.1,9.1,36.1,20.9V59H88v-0.8      c0-12.8-8.5-13.1-23.8-13.1H39.7c-20.1,0.1-24.5,2-24.5,11.4v3.1c0,6.9,2.3,10.8,17,10.8h37c21.1,0,35.5,2.1,35.5,24.6v0.3      c0.1,23.4-21.5,24.2-38.6,24.2H40.2c-20.7,0-40.2,0-40.2-25.1V89.5z"></path>
				<path d="M123.8,34.9h13.1v13.2h0.3c4.1-10.1,15.5-14.5,27.9-14.5h26.7c19.9,0,38.5,6.4,38.5,35.1v14.7      c0,26.9-11.9,36.1-40.8,36.1h-26.7c-14.9,0-21.5-3.7-24.5-12.3H138v40.1h-14.2V34.9z M216.2,68.9c0-16.2-5.2-23.8-25-23.8h-27.9      c-18.5,0-25.5,9.6-25.5,24v15.9c0,19.9,12.3,23.2,27.3,23.2h25c16.4,0,26.1-3.6,26.1-22.9V68.9z"></path>
				<path d="M408.3,34.9h13.1V47h0.3c5.2-10.8,15.9-13.4,25.5-13.4h13.2c26.3,0,34.9,8.5,34.9,28.9v10h-13v-3.6      c0-20.5-4.3-23.8-29.2-23.8h-8.7c-14.9,0-22,9.5-22,20.2v52.9h-14L408.3,34.9z"></path>
				<path d="M523.8,46.4h-18.3V34.9h18.3V15.2h14v19.7h55.8v11.4h-55.7v41.5c0,15.5,5.4,20.3,20.7,20.3h4.4      c18.6,0,21.6-3.9,21.6-21.4v-6.2H596v9.1c0,16.7-1.6,29.9-32,29.9h-7.7c-26.4,0-32.5-12.7-32.5-26.3V46.4z"></path>
				<path d="M613.9,34.9h29.4v15.8h0.3c3.6-13.2,16.3-17.2,30.5-17.2c22.9,0,31.8,9.8,31.8,32.9c0,2.1-0.2,4.4-0.3,7.4h-27.1      c0-10.6-2.5-15.7-15-15.7c-10.8,0-18.3,4.1-18.3,14v46.1h-31.3V34.9z"></path>
				<path d="M717.6,89c0-22.6,15.7-24,46.1-24c17.2,0,26.7,0.5,32.7,6.7v-7.4c0-8.2-2.4-11.1-14.7-11.1h-18.5      c-9.1,0-11.7,0.8-12.1,6.7h-30.4c0-22.6,11.1-26.3,37.6-26.3h36.4c21.5,0,33,10.3,33,29.9v54.7H798v-9.4      c-8.7,9-11.9,10.8-27.6,10.8H749c-19.1,0.2-31.3-4.1-31.3-23.7V89z M773.5,99.9c21.6,0,23.5-3.3,23.5-8.8      c0-6.2-1.8-8.5-19.1-8.5h-13.8c-13.2,0-16,2.9-16,9.8c0,5.4,4.3,7.5,16.4,7.5H773.5z"></path>
				<path d="M843.5,69.1c0-21.2,4.9-35.4,44.6-35.4h9.3c12.9,0,26.1,3.6,28.1,16.7h0.3V0h31.3v118.2h-29.4v-15.4h-0.3      c-3.4,10.3-11.3,16.7-30.2,16.7h-9.1c-39.7,0-44.6-14.2-44.6-35.4V69.1z M873.9,81.4c0,9.3,1.5,14.5,16.4,14.5h18.5      c12.3,0,18.9-2.8,18.9-15.3v-8.2c0-12.6-6.5-15.3-18.9-15.3h-18.5c-15,0-16.4,5.2-16.4,14.5V81.4z"></path>
				<path d="M974.6,89c0-22.6,15.7-24,46.1-24c17.1,0,26.7,0.5,32.7,6.7v-7.4c0-8.2-2.4-11.1-14.7-11.1h-18.5      c-9.2,0-11.8,0.8-12.1,6.7h-30.3c0-22.6,11.1-26.3,37.6-26.3h36.4c21.6,0,33,10.3,33,29.9v54.7h-29.7v-9.4      c-8.6,9-11.9,10.8-27.6,10.8H1006c-19.1,0.2-31.4-4.1-31.4-23.7V89z M1030.5,99.9c21.5,0,23.5-3.3,23.5-8.8      c0-6.2-1.8-8.5-19.1-8.5H1021c-13.2,0-16,2.9-16,9.8c0,5.4,4.3,7.5,16.4,7.5H1030.5z"></path>
				<path d="M1104.7,34.9h29.4v15.8h0.3c3.6-13.2,16.3-17.2,30.5-17.2c22.9,0,31.9,9.8,31.9,32.9c0,2.1-0.2,4.4-0.3,7.4h-27.1      c0-10.6-2.4-15.7-15-15.7c-10.8,0-18.3,4.1-18.3,14v46.1h-31.4V34.9z"></path>
				<path class="st0" d="M332.7,44.9h-28.7c-16.4,0-27.8,3.7-27.8,23.2v16.7c0,19.4,11.4,23.2,27.8,23.2h28.7      c16.3,0,27.8-3.8,27.8-23.2V68.1C360.4,48.6,349,44.9,332.7,44.9z"></path>
				<path class="st0" d="M331.2,21.5h-25.7c-34,0-58.9,8.2-58.9,43.2v23.4c0,35.1,24.9,43.1,58.9,43.1h25.7c34,0,58.9-8.2,58.9-43.1      V64.7C390.1,29.6,365.3,21.5,331.2,21.5z M374.5,85.6c0,27.4-19.4,33.8-46.1,33.8h-20.1c-26.7,0-46.1-6.4-46.1-33.8V67.3      c0-27.4,19.5-33.8,46.1-33.8h20.1c26.7,0,46.1,6.4,46.1,33.8V85.6z"></path>
			</g>
		</g>
	</g>
	<g>
		<path d="M13.6,232c-2.7,0-5.2-0.5-7.6-1.5c-2.3-1-4.3-2.4-6-4.2l3-3.4c1.4,1.5,3,2.6,4.9,3.5c1.9,0.9,3.8,1.3,5.8,1.3    c2.6,0,4.6-0.6,6-1.7c1.4-1.2,2.1-2.7,2.1-4.6c0-1-0.2-1.8-0.5-2.5c-0.3-0.7-0.8-1.3-1.4-1.8c-0.6-0.5-1.3-0.9-2-1.3    c-0.8-0.4-1.6-0.8-2.5-1.2l-5.6-2.4c-0.9-0.4-1.8-0.9-2.8-1.4c-0.9-0.6-1.8-1.2-2.5-2c-0.7-0.8-1.4-1.7-1.8-2.8    c-0.5-1.1-0.7-2.3-0.7-3.8c0-1.5,0.3-2.8,0.9-4.1c0.6-1.3,1.5-2.4,2.5-3.3c1.1-0.9,2.4-1.6,3.8-2.2c1.5-0.5,3.1-0.8,4.9-0.8    c2.3,0,4.5,0.4,6.4,1.3c2,0.9,3.6,2,5,3.5l-2.7,3.2c-1.2-1.1-2.5-2-3.9-2.7c-1.4-0.7-3.1-1-4.9-1c-2.2,0-3.9,0.5-5.2,1.5    c-1.3,1-2,2.4-2,4.2c0,0.9,0.2,1.7,0.6,2.4c0.4,0.7,0.9,1.2,1.5,1.7c0.6,0.5,1.3,0.9,2.1,1.3c0.7,0.4,1.5,0.7,2.3,1l5.5,2.4    c1.1,0.5,2.1,1,3.1,1.6c1,0.6,1.8,1.3,2.5,2.1c0.7,0.8,1.3,1.8,1.7,2.8c0.4,1.1,0.6,2.3,0.6,3.8c0,1.5-0.3,3-0.9,4.3    c-0.6,1.3-1.5,2.5-2.6,3.5c-1.1,1-2.5,1.8-4.1,2.4C17.5,231.7,15.6,232,13.6,232z"></path>
		<path d="M45.1,231.3v-38.8h11.1c2.2,0,4.1,0.2,5.9,0.6c1.8,0.4,3.3,1,4.6,1.9c1.3,0.9,2.2,2.1,3,3.5c0.7,1.5,1.1,3.3,1.1,5.4    c0,2-0.3,3.8-1,5.3c-0.7,1.5-1.7,2.7-2.9,3.7c-1.3,1-2.8,1.7-4.5,2.2c-1.8,0.5-3.7,0.7-5.8,0.7H50v15.4H45.1z M50,211.9h5.8    c3.4,0,5.9-0.6,7.5-1.9c1.6-1.3,2.5-3.3,2.5-6.1c0-2.8-0.9-4.7-2.6-5.8c-1.7-1.1-4.3-1.6-7.7-1.6H50V211.9z"></path>
		<path d="M103.6,232c-2.4,0-4.7-0.5-6.7-1.4c-2-0.9-3.8-2.3-5.2-4c-1.5-1.8-2.6-3.9-3.4-6.4c-0.8-2.5-1.2-5.3-1.2-8.4    c0-3.1,0.4-5.9,1.2-8.4c0.8-2.5,1.9-4.6,3.4-6.3c1.5-1.7,3.2-3,5.2-3.9c2-0.9,4.3-1.4,6.7-1.4c2.4,0,4.7,0.5,6.7,1.4    c2,0.9,3.8,2.2,5.3,4c1.5,1.7,2.6,3.8,3.4,6.3c0.8,2.5,1.2,5.2,1.2,8.3c0,3.1-0.4,5.9-1.2,8.4c-0.8,2.5-2,4.6-3.4,6.4    c-1.5,1.8-3.2,3.1-5.3,4C108.3,231.5,106,232,103.6,232z M103.6,227.7c1.7,0,3.3-0.4,4.7-1.1c1.4-0.7,2.6-1.8,3.6-3.2    c1-1.4,1.8-3.1,2.3-5c0.6-2,0.8-4.1,0.8-6.6c0-2.4-0.3-4.6-0.8-6.5c-0.6-1.9-1.3-3.6-2.3-4.9c-1-1.3-2.2-2.4-3.6-3.1    c-1.4-0.7-3-1.1-4.7-1.1c-1.7,0-3.3,0.4-4.7,1.1c-1.4,0.7-2.6,1.8-3.6,3.1c-1,1.3-1.8,3-2.3,4.9c-0.6,1.9-0.8,4.1-0.8,6.5    c0,2.4,0.3,4.6,0.8,6.6c0.6,2,1.3,3.6,2.3,5c1,1.4,2.2,2.5,3.6,3.2C100.3,227.3,101.8,227.7,103.6,227.7z"></path>
		<path d="M139.2,231.3v-38.8h12.1c2,0,3.8,0.2,5.5,0.6c1.7,0.4,3.1,1,4.3,1.9c1.2,0.9,2.1,2,2.8,3.4c0.7,1.4,1,3.1,1,5.1    c0,3-0.8,5.5-2.4,7.3c-1.6,1.8-3.7,3.1-6.4,3.7l9.9,16.9h-5.6l-9.3-16.4h-7v16.4H139.2z M144.1,210.9h6.5c3,0,5.4-0.6,7-1.9    c1.6-1.2,2.4-3.1,2.4-5.6c0-2.6-0.8-4.4-2.4-5.4c-1.6-1-3.9-1.5-7-1.5h-6.5V210.9z"></path>
		<path d="M190.8,231.3v-34.6h-11.7v-4.1h28.4v4.1h-11.7v34.6H190.8z"></path>
		<path d="M233.6,232c-2.7,0-5.2-0.5-7.6-1.5c-2.3-1-4.3-2.4-6-4.2l3-3.4c1.4,1.5,3,2.6,4.9,3.5c1.9,0.9,3.8,1.3,5.8,1.3    c2.6,0,4.6-0.6,6-1.7c1.4-1.2,2.1-2.7,2.1-4.6c0-1-0.2-1.8-0.5-2.5c-0.3-0.7-0.8-1.3-1.4-1.8c-0.6-0.5-1.3-0.9-2-1.3    c-0.8-0.4-1.6-0.8-2.5-1.2l-5.6-2.4c-0.9-0.4-1.8-0.9-2.8-1.4c-0.9-0.6-1.8-1.2-2.5-2c-0.7-0.8-1.4-1.7-1.8-2.8    c-0.5-1.1-0.7-2.3-0.7-3.8c0-1.5,0.3-2.8,0.9-4.1c0.6-1.3,1.5-2.4,2.5-3.3c1.1-0.9,2.4-1.6,3.8-2.2c1.5-0.5,3.1-0.8,4.9-0.8    c2.3,0,4.5,0.4,6.4,1.3c2,0.9,3.6,2,5,3.5l-2.7,3.2c-1.2-1.1-2.5-2-3.9-2.7c-1.4-0.7-3.1-1-4.9-1c-2.2,0-3.9,0.5-5.2,1.5    c-1.3,1-2,2.4-2,4.2c0,0.9,0.2,1.7,0.6,2.4c0.4,0.7,0.9,1.2,1.5,1.7c0.6,0.5,1.3,0.9,2.1,1.3c0.7,0.4,1.5,0.7,2.3,1l5.5,2.4    c1.1,0.5,2.1,1,3.1,1.6c1,0.6,1.8,1.3,2.5,2.1c0.7,0.8,1.3,1.8,1.7,2.8c0.4,1.1,0.6,2.3,0.6,3.8c0,1.5-0.3,3-0.9,4.3    c-0.6,1.3-1.5,2.5-2.6,3.5c-1.1,1-2.5,1.8-4.1,2.4C237.5,231.7,235.6,232,233.6,232z"></path>
		<path d="M294.1,231.3v-34.6h-11.7v-4.1h28.4v4.1H299v34.6H294.1z"></path>
		<path d="M328.4,231.3v-38.8h22.3v4.1h-17.4v12.2H348v4.2h-14.7v14.1h18v4.2H328.4z"></path>
		<path d="M384.9,232c-2.4,0-4.7-0.5-6.7-1.4c-2-0.9-3.8-2.2-5.4-3.9c-1.5-1.7-2.7-3.8-3.5-6.3c-0.8-2.5-1.3-5.3-1.3-8.5    c0-3.1,0.4-5.9,1.3-8.4c0.9-2.5,2.1-4.6,3.6-6.3c1.5-1.7,3.3-3.1,5.4-4c2.1-0.9,4.4-1.4,6.9-1.4c2.4,0,4.4,0.5,6.2,1.4    c1.8,1,3.3,2.1,4.4,3.3l-2.7,3.2c-1-1.1-2.2-2-3.5-2.7c-1.3-0.7-2.8-1-4.4-1c-1.9,0-3.5,0.4-5,1.1c-1.5,0.7-2.8,1.8-3.8,3.1    c-1.1,1.4-1.9,3-2.5,4.9c-0.6,1.9-0.9,4.1-0.9,6.5c0,2.4,0.3,4.6,0.9,6.6c0.6,2,1.4,3.6,2.4,5c1,1.4,2.3,2.4,3.8,3.2    c1.5,0.7,3.1,1.1,5,1.1c1.9,0,3.5-0.4,5-1.2c1.4-0.8,2.8-1.8,4-3.2l2.7,3.1c-1.5,1.8-3.3,3.2-5.2,4.1    C389.7,231.5,387.5,232,384.9,232z"></path>
		<path d="M414.7,231.3v-38.8h4.9v16.3h18v-16.3h5v38.8h-5V213h-18v18.3H414.7z"></path>
		<path d="M464,231.3v-38.8h5.1l14,24.4l4.2,8h0.2c-0.1-2-0.2-4-0.4-6.1c-0.1-2.1-0.2-4.2-0.2-6.2v-20h4.7v38.8h-5.1l-14.1-24.4    l-4.2-8H468c0.2,2,0.3,4,0.4,6c0.1,2,0.2,4.1,0.2,6.1v20.3H464z"></path>
		<path d="M527.2,232c-2.4,0-4.7-0.5-6.7-1.4c-2-0.9-3.8-2.3-5.2-4c-1.5-1.8-2.6-3.9-3.4-6.4c-0.8-2.5-1.2-5.3-1.2-8.4    c0-3.1,0.4-5.9,1.2-8.4c0.8-2.5,1.9-4.6,3.4-6.3c1.5-1.7,3.2-3,5.2-3.9c2-0.9,4.3-1.4,6.7-1.4c2.4,0,4.7,0.5,6.7,1.4    c2,0.9,3.8,2.2,5.3,4c1.5,1.7,2.6,3.8,3.4,6.3c0.8,2.5,1.2,5.2,1.2,8.3c0,3.1-0.4,5.9-1.2,8.4c-0.8,2.5-2,4.6-3.4,6.4    c-1.5,1.8-3.2,3.1-5.3,4C531.9,231.5,529.7,232,527.2,232z M527.2,227.7c1.7,0,3.3-0.4,4.7-1.1c1.4-0.7,2.6-1.8,3.6-3.2    c1-1.4,1.8-3.1,2.3-5c0.6-2,0.8-4.1,0.8-6.6c0-2.4-0.3-4.6-0.8-6.5c-0.6-1.9-1.3-3.6-2.3-4.9c-1-1.3-2.2-2.4-3.6-3.1    c-1.4-0.7-3-1.1-4.7-1.1c-1.7,0-3.3,0.4-4.7,1.1c-1.4,0.7-2.6,1.8-3.6,3.1c-1,1.3-1.8,3-2.3,4.9c-0.6,1.9-0.8,4.1-0.8,6.5    c0,2.4,0.3,4.6,0.8,6.6c0.6,2,1.3,3.6,2.3,5c1,1.4,2.2,2.5,3.6,3.2C523.9,227.3,525.5,227.7,527.2,227.7z"></path>
		<path d="M562.9,231.3v-38.8h4.9v34.6h17v4.2H562.9z"></path>
		<path d="M615.1,232c-2.4,0-4.7-0.5-6.7-1.4c-2-0.9-3.8-2.3-5.2-4c-1.5-1.8-2.6-3.9-3.4-6.4c-0.8-2.5-1.2-5.3-1.2-8.4    c0-3.1,0.4-5.9,1.2-8.4c0.8-2.5,1.9-4.6,3.4-6.3c1.5-1.7,3.2-3,5.2-3.9c2-0.9,4.3-1.4,6.7-1.4c2.4,0,4.7,0.5,6.7,1.4    c2,0.9,3.8,2.2,5.3,4c1.5,1.7,2.6,3.8,3.4,6.3c0.8,2.5,1.2,5.2,1.2,8.3c0,3.1-0.4,5.9-1.2,8.4c-0.8,2.5-2,4.6-3.4,6.4    c-1.5,1.8-3.2,3.1-5.3,4C619.8,231.5,617.5,232,615.1,232z M615.1,227.7c1.7,0,3.3-0.4,4.7-1.1c1.4-0.7,2.6-1.8,3.6-3.2    c1-1.4,1.8-3.1,2.3-5c0.6-2,0.8-4.1,0.8-6.6c0-2.4-0.3-4.6-0.8-6.5c-0.6-1.9-1.3-3.6-2.3-4.9c-1-1.3-2.2-2.4-3.6-3.1    c-1.4-0.7-3-1.1-4.7-1.1c-1.7,0-3.3,0.4-4.7,1.1c-1.4,0.7-2.6,1.8-3.6,3.1c-1,1.3-1.8,3-2.3,4.9c-0.6,1.9-0.8,4.1-0.8,6.5    c0,2.4,0.3,4.6,0.8,6.6c0.6,2,1.3,3.6,2.3,5c1,1.4,2.2,2.5,3.6,3.2C611.8,227.3,613.4,227.7,615.1,227.7z"></path>
		<path d="M666,232c-2.6,0-4.9-0.5-7.1-1.4c-2.1-0.9-4-2.2-5.5-3.9c-1.5-1.7-2.7-3.8-3.6-6.3c-0.9-2.5-1.3-5.3-1.3-8.5    c0-3.1,0.4-5.9,1.3-8.4c0.9-2.5,2.1-4.6,3.7-6.3c1.6-1.7,3.5-3.1,5.6-4c2.2-0.9,4.6-1.4,7.1-1.4c1.3,0,2.6,0.1,3.7,0.4    c1.1,0.3,2.1,0.6,3.1,1.1c0.9,0.5,1.8,1,2.5,1.5c0.7,0.6,1.4,1.2,1.9,1.7l-2.7,3.2c-1-1-2.1-1.9-3.4-2.6c-1.3-0.7-2.9-1.1-4.9-1.1    c-2,0-3.7,0.4-5.3,1.1c-1.6,0.7-2.9,1.8-4,3.1c-1.1,1.4-2,3-2.6,4.9c-0.6,1.9-0.9,4.1-0.9,6.5c0,2.4,0.3,4.6,0.9,6.6    c0.6,2,1.4,3.6,2.5,5c1.1,1.4,2.4,2.4,4,3.2c1.6,0.7,3.4,1.1,5.5,1.1c1.4,0,2.7-0.2,3.9-0.6c1.2-0.4,2.3-1,3-1.7v-10.1h-8.2v-4.1    h12.7v16.3c-1.3,1.3-2.9,2.4-5,3.2C670.9,231.6,668.6,232,666,232z"></path>
		<path d="M704.2,231.3v-15l-11.6-23.8h5.3l5,10.9c0.6,1.4,1.2,2.8,1.8,4.2c0.6,1.4,1.2,2.8,1.9,4.3h0.2c0.7-1.5,1.3-2.9,2-4.3    c0.7-1.4,1.3-2.8,1.9-4.2l5-10.9h5.1l-11.6,23.8v15H704.2z"></path>
		<path d="M733.5,232c-1,0-1.8-0.3-2.5-1c-0.7-0.7-1-1.6-1-2.6c0-1.1,0.3-2.1,1-2.7c0.7-0.7,1.5-1,2.5-1c0.9,0,1.8,0.3,2.5,1    c0.7,0.7,1,1.6,1,2.7c0,1.1-0.3,1.9-1,2.6C735.2,231.7,734.4,232,733.5,232z"></path>
		<path d="M777.7,231.3v-38.8h12.1c2,0,3.8,0.2,5.5,0.6c1.7,0.4,3.1,1,4.3,1.9c1.2,0.9,2.1,2,2.8,3.4c0.7,1.4,1,3.1,1,5.1    c0,3-0.8,5.5-2.4,7.3c-1.6,1.8-3.7,3.1-6.4,3.7l9.9,16.9H799l-9.3-16.4h-7v16.4H777.7z M782.6,210.9h6.5c3,0,5.4-0.6,7-1.9    c1.6-1.2,2.4-3.1,2.4-5.6c0-2.6-0.8-4.4-2.4-5.4c-1.6-1-3.9-1.5-7-1.5h-6.5V210.9z"></path>
		<path d="M822.1,231.3v-38.8h22.3v4.1H827v12.2h14.7v4.2H827v14.1h18v4.2H822.1z"></path>
		<path d="M863.9,231.3v-38.8h4.9v38.8H863.9z"></path>
		<path d="M890.2,231.3v-38.8h5.9l7.4,20.7c0.5,1.3,0.9,2.7,1.4,4c0.5,1.4,0.9,2.7,1.4,4h0.2c0.5-1.3,0.9-2.7,1.3-4    c0.4-1.4,0.9-2.7,1.3-4l7.3-20.7h6v38.8h-4.6v-21.3c0-1.7,0.1-3.6,0.2-5.7c0.2-2.1,0.3-4,0.4-5.7h-0.2l-3.1,8.8l-7.3,20.1h-3.3    l-7.3-20.1l-3.1-8.8H894c0.1,1.7,0.2,3.6,0.4,5.7c0.1,2.1,0.2,4,0.2,5.7v21.3H890.2z"></path>
		<path d="M938.7,231.3l13.1-38.8h5.6l13.1,38.8h-5.3l-3.7-11.8h-14.1l-3.7,11.8H938.7z M950.5,209.6l-1.8,5.9h11.6l-1.8-5.9    c-0.7-2.2-1.4-4.3-2-6.5c-0.6-2.1-1.3-4.3-1.9-6.6h-0.2c-0.6,2.2-1.2,4.4-1.8,6.6C951.9,205.3,951.3,207.4,950.5,209.6z"></path>
		<path d="M1001.4,232c-2.6,0-4.9-0.5-7.1-1.4c-2.1-0.9-4-2.2-5.5-3.9c-1.5-1.7-2.7-3.8-3.6-6.3c-0.9-2.5-1.3-5.3-1.3-8.5    c0-3.1,0.4-5.9,1.3-8.4c0.9-2.5,2.1-4.6,3.7-6.3c1.6-1.7,3.5-3.1,5.6-4c2.2-0.9,4.6-1.4,7.1-1.4c1.3,0,2.6,0.1,3.7,0.4    c1.1,0.3,2.1,0.6,3.1,1.1c0.9,0.5,1.8,1,2.5,1.5c0.7,0.6,1.4,1.2,1.9,1.7l-2.7,3.2c-1-1-2.1-1.9-3.4-2.6c-1.3-0.7-2.9-1.1-4.9-1.1    c-2,0-3.7,0.4-5.3,1.1c-1.6,0.7-2.9,1.8-4,3.1c-1.1,1.4-2,3-2.6,4.9c-0.6,1.9-0.9,4.1-0.9,6.5c0,2.4,0.3,4.6,0.9,6.6    c0.6,2,1.4,3.6,2.5,5c1.1,1.4,2.4,2.4,4,3.2c1.6,0.7,3.4,1.1,5.5,1.1c1.4,0,2.7-0.2,3.9-0.6c1.2-0.4,2.3-1,3-1.7v-10.1h-8.2v-4.1    h12.7v16.3c-1.3,1.3-2.9,2.4-5,3.2C1006.3,231.6,1004,232,1001.4,232z"></path>
		<path d="M1033.3,231.3v-38.8h4.9v38.8H1033.3z"></path>
		<path d="M1059.6,231.3v-38.8h5.1l14,24.4l4.2,8h0.2c-0.1-2-0.2-4-0.4-6.1c-0.1-2.1-0.2-4.2-0.2-6.2v-20h4.7v38.8h-5.1l-14.1-24.4    l-4.2-8h-0.2c0.2,2,0.3,4,0.4,6c0.1,2,0.2,4.1,0.2,6.1v20.3H1059.6z"></path>
		<path d="M1108.5,231.3v-38.8h22.3v4.1h-17.4v12.2h14.7v4.2h-14.7v14.1h18v4.2H1108.5z"></path>
		<path d="M1150.4,231.3v-38.8h9.7c6,0,10.5,1.7,13.7,5c3.1,3.3,4.7,8.1,4.7,14.2c0,3.1-0.4,5.8-1.2,8.2c-0.8,2.4-2,4.5-3.5,6.1    c-1.5,1.7-3.4,3-5.7,3.8c-2.2,0.9-4.8,1.3-7.7,1.3H1150.4z M1155.3,227.3h4.4c4.5,0,7.9-1.4,10.2-4.1c2.3-2.7,3.4-6.5,3.4-11.5    c0-4.9-1.1-8.7-3.4-11.3c-2.3-2.6-5.7-3.9-10.2-3.9h-4.4V227.3z"></path>
		<path d="M1193.5,232c-1,0-1.8-0.3-2.5-1c-0.7-0.7-1-1.6-1-2.6c0-1.1,0.3-2.1,1-2.7c0.7-0.7,1.5-1,2.5-1c0.9,0,1.8,0.3,2.5,1    c0.7,0.7,1,1.6,1,2.7c0,1.1-0.3,1.9-1,2.6C1195.2,231.7,1194.4,232,1193.5,232z"></path>
	</g>
</g>
</svg>
